HIERARCHY
ROOT joint_Root
{
	OFFSET 0.0 0.0 0.0
	CHANNELS 6 Xposition Yposition Zposition Zrotation Xrotation Yrotation 
	JOINT Hips
	{
		OFFSET 4.5925 91.4895 -427.239
		CHANNELS 6 Xposition Yposition Zposition Zrotation Xrotation Yrotation 
		JOINT Spine
		{
			OFFSET 15.7357 0.0 0.0
			CHANNELS 6 Xposition Yposition Zposition Zrotation Xrotation Yrotation 
			JOINT Chest
			{
				OFFSET 8.98455 -0.406207 0.0
				CHANNELS 6 Xposition Yposition Zposition Zrotation Xrotation Yrotation 
				JOINT Neck
				{
					OFFSET 16.3773 0.0 0.0
					CHANNELS 6 Xposition Yposition Zposition Zrotation Xrotation Yrotation 
					JOINT Head
					{
						OFFSET 6.45672 0.0 0.0
						CHANNELS 6 Xposition Yposition Zposition Zrotation Xrotation Yrotation 
						End Site
						{
							OFFSET 0.0 0.0 0.0
						}
					}
				}
				JOINT Shoulder_L
				{
					OFFSET 12.9942 -0.242716 4.98039
					CHANNELS 6 Xposition Yposition Zposition Zrotation Xrotation Yrotation 
					JOINT UpperArm_L
					{
						OFFSET 5.34809 0.0 0.0
						CHANNELS 6 Xposition Yposition Zposition Zrotation Xrotation Yrotation 
						JOINT LowerArm_L
						{
							OFFSET 24.3286 1.87007e-05 0.0
							CHANNELS 6 Xposition Yposition Zposition Zrotation Xrotation Yrotation 
							JOINT Hand_L
							{
								OFFSET 22.2916 0.0 0.0
								CHANNELS 6 Xposition Yposition Zposition Zrotation Xrotation Yrotation 
								End Site
								{
									OFFSET 0.0 0.0 0.0
								}
							}
						}
					}
				}
				JOINT Shoulder_R
				{
					OFFSET 12.9945 -0.242716 -4.98039
					CHANNELS 6 Xposition Yposition Zposition Zrotation Xrotation Yrotation 
					JOINT UpperArm_R
					{
						OFFSET -5.34813 0.0 0.0
						CHANNELS 6 Xposition Yposition Zposition Zrotation Xrotation Yrotation 
						JOINT LowerArm_R
						{
							OFFSET -24.3289 0.000322201 0.0
							CHANNELS 6 Xposition Yposition Zposition Zrotation Xrotation Yrotation 
							JOINT Hand_R
							{
								OFFSET -22.2915 -0.000108084 0.0
								CHANNELS 6 Xposition Yposition Zposition Zrotation Xrotation Yrotation 
								End Site
								{
									OFFSET 0.0 0.0 0.0
								}
							}
						}
					}
				}
			}
		}
		JOINT UpperLeg_L
		{
			OFFSET -2.19248 -6.46944 0.0
			CHANNELS 6 Xposition Yposition Zposition Zrotation Xrotation Yrotation 
			JOINT LowerLeg_L
			{
				OFFSET 39.0811 0.0 -1.23785e-05
				CHANNELS 6 Xposition Yposition Zposition Zrotation Xrotation Yrotation 
				JOINT Foot_L
				{
					OFFSET 40.9854 0.0 -1.26872e-05
					CHANNELS 6 Xposition Yposition Zposition Zrotation Xrotation Yrotation 
					JOINT Toes_L
					{
						OFFSET 11.7543 0.0 0.0
						CHANNELS 6 Xposition Yposition Zposition Zrotation Xrotation Yrotation 
						End Site
						{
							OFFSET 0.0 0.0 0.0
						}
					}
				}
			}
		}
		JOINT UpperLeg_R
		{
			OFFSET -2.19251 6.46944 0.0
			CHANNELS 6 Xposition Yposition Zposition Zrotation Xrotation Yrotation 
			JOINT LowerLeg_R
			{
				OFFSET -39.0811 -0.00228153 -0.0401928
				CHANNELS 6 Xposition Yposition Zposition Zrotation Xrotation Yrotation 
				JOINT Foot_R
				{
					OFFSET -40.9854 0.0 0.0
					CHANNELS 6 Xposition Yposition Zposition Zrotation Xrotation Yrotation 
					JOINT Toes_R
					{
						OFFSET -11.7543 0.0 0.0
						CHANNELS 6 Xposition Yposition Zposition Zrotation Xrotation Yrotation 
						End Site
						{
							OFFSET 0.0 0.0 0.0
						}
					}
				}
			}
		}
	}
}
MOTION
Frames:	6
Frame Time:	0.0333333
0.000000 0.000000 0.000000 0.000000 0.000000 -0.000000 4.512840 91.180000 1.569950 89.194000 -11.541600 3.086590 15.735700 0.000005 -0.000001 80.064800 84.854800 -76.298700 8.984550 -0.406207 -0.000000 2.446440 -1.948510 7.567070 16.377300 -0.000001 -0.000001 2.559000 0.250855 -2.107270 6.456720 -0.000001 -0.000000 -3.239030 -1.280770 5.111840 12.994200 -0.242716 4.980390 -85.091500 -10.374800 -64.504400 5.348090 -0.000007 -0.000001 -50.837300 -62.695400 -91.407600 24.328600 0.000019 0.000005 17.923900 10.400000 -60.834800 22.291600 -0.000001 0.000005 22.618200 5.252970 1.354410 12.994500 -0.242716 -4.980390 87.780200 9.883260 -77.274100 -5.348130 -0.000001 -0.000004 -57.164000 19.365700 -3.257500 -24.328900 0.000322 -0.000009 -0.270124 -0.519579 -27.375700 -22.291500 -0.000108 -0.000004 16.724600 5.409670 -3.254470 -2.192480 -6.469440 -0.000000 -178.567000 -18.923800 -3.169390 39.081100 -0.000007 -0.000012 -0.147891 0.287988 27.182100 40.985400 -0.000006 -0.000013 2.175490 1.802700 -71.174900 11.754300 -0.000000 0.000003 -0.000245 -0.002198 -16.660000 -2.192510 6.469440 -0.000001 173.078000 16.935200 175.378000 -39.081100 -0.002282 -0.040193 -0.138133 0.284394 26.443400 -40.985400 0.000008 0.000006 1.579960 19.682600 -68.574200 -11.754300 -0.000006 -0.000006 -0.070894 -0.084833 -16.520100
0.000000 0.000000 0.000000 0.000000 0.000000 -0.000000 4.329220 91.205100 1.530730 89.275000 -11.144600 3.108600 15.735700 0.000005 -0.000001 79.722600 84.907800 -76.114900 8.984550 -0.406207 -0.000000 2.328940 -1.986530 7.249510 16.377300 -0.000001 -0.000001 2.625820 0.169591 -2.012020 6.456720 -0.000001 -0.000000 -3.261450 -1.426740 5.229110 12.994200 -0.242716 4.980390 -85.303000 -9.992920 -64.663100 5.348090 -0.000007 -0.000001 -50.107300 -61.702300 -89.052300 24.328600 0.000019 0.000005 17.251900 8.585060 -64.329500 22.291600 -0.000001 0.000005 22.352400 5.246330 1.529440 12.994500 -0.242716 -4.980390 87.737500 10.002300 -77.185000 -5.348130 -0.000001 -0.000004 -56.989200 19.053800 -3.861200 -24.328900 0.000322 -0.000009 -0.299324 -0.592331 -26.729600 -22.291500 -0.000108 -0.000004 16.852600 5.408720 -3.223100 -2.192480 -6.469440 -0.000000 -178.459000 -18.991800 -3.117610 39.081100 -0.000007 -0.000012 -0.142687 0.279314 27.060300 40.985400 -0.000006 -0.000013 2.165390 2.292650 -71.059300 11.754300 -0.000000 0.000003 -0.000249 -0.002223 -16.660900 -2.192510 6.469440 -0.000001 173.115000 17.171500 175.477000 -39.081100 -0.002282 -0.040193 -0.135342 0.279048 26.421600 -40.985400 0.000008 0.000006 1.703930 19.471500 -68.646400 -11.754300 -0.000006 -0.000006 -0.007660 -0.009151 -16.568800
0.000000 0.000000 0.000000 0.000000 0.000000 -0.000000 4.124970 91.215900 1.516580 89.367000 -10.606200 3.204910 15.735700 0.000005 -0.000001 79.245000 84.941400 -75.801200 8.984550 -0.406207 -0.000000 2.245800 -2.052230 6.921840 16.377300 -0.000001 -0.000001 2.713360 0.035808 -1.812260 6.456720 -0.000001 -0.000000 -3.219030 -1.465160 5.325610 12.994200 -0.242716 4.980390 -85.581700 -9.511820 -64.940500 5.348090 -0.000007 -0.000001 -48.330800 -60.016400 -84.558000 24.328600 0.000019 0.000005 16.681500 6.325180 -69.817200 22.291600 -0.000001 0.000005 22.285500 5.242060 1.641450 12.994500 -0.242716 -4.980390 87.683200 10.115700 -77.028300 -5.348130 -0.000001 -0.000004 -56.938200 18.666900 -4.568460 -24.328900 0.000322 -0.000009 -0.314977 -0.648584 -25.827000 -22.291500 -0.000108 -0.000004 16.964800 5.409190 -3.238770 -2.192480 -6.469440 -0.000000 -178.331000 -18.849100 -3.020020 39.081100 -0.000007 -0.000012 -0.142922 0.280396 27.008700 40.985400 -0.000006 -0.000013 2.132210 2.756270 -70.982000 11.754300 -0.000000 0.000003 -0.000259 -0.002297 -16.663500 -2.192510 6.469440 -0.000001 173.080000 17.570100 175.677000 -39.081100 -0.002282 -0.040193 -0.141431 0.291104 26.437200 -40.985400 0.000008 0.000006 1.716310 19.356600 -68.720000 -11.754300 -0.000006 -0.000006 -0.046552 -0.055631 -16.538800
0.000000 0.000000 0.000000 0.000000 0.000000 -0.000000 3.900820 91.216400 1.496040 89.438700 -9.988490 3.332440 15.735700 0.000005 -0.000001 78.926000 84.971200 -75.654600 8.984550 -0.406207 -0.000000 2.173650 -2.089880 6.576670 16.377300 -0.000001 -0.000001 2.791610 -0.145490 -1.482340 6.456720 -0.000001 -0.000000 -3.113360 -1.481900 5.456690 12.994200 -0.242716 4.980390 -85.956700 -8.868770 -65.369300 5.348090 -0.000007 -0.000001 -45.424900 -57.298000 -78.009800 24.328600 0.000019 0.000005 16.306600 3.898210 -76.921400 22.291600 -0.000001 0.000005 22.962400 5.242180 1.639640 12.994500 -0.242716 -4.980390 87.613800 10.259600 -76.831700 -5.348130 -0.000001 -0.000004 -56.973000 18.535100 -5.225530 -24.328900 0.000322 -0.000009 -0.392027 -0.843348 -24.875700 -22.291500 -0.000108 -0.000004 17.159200 5.405460 -3.115960 -2.192480 -6.469440 -0.000000 -178.161000 -18.693700 -2.943920 39.081100 -0.000007 -0.000012 -0.143546 0.281174 27.045600 40.985400 -0.000006 -0.000013 2.098020 3.248410 -70.933600 11.754300 -0.000000 0.000003 -0.000266 -0.002350 -16.665500 -2.192510 6.469440 -0.000001 173.052000 18.015900 175.919000 -39.081100 -0.002282 -0.040193 -0.149652 0.307071 26.479400 -40.985400 0.000008 0.000006 1.649930 19.218200 -68.788800 -11.754300 -0.000006 -0.000006 -0.073080 -0.087455 -16.518300
0.000000 0.000000 0.000000 0.000000 0.000000 -0.000000 3.668040 91.221100 1.468040 89.458400 -9.353040 3.468710 15.735700 0.000005 -0.000001 79.010300 85.006500 -75.903300 8.984550 -0.406207 -0.000000 2.102390 -2.055910 6.246340 16.377300 -0.000001 -0.000001 2.890700 -0.407700 -1.073760 6.456720 -0.000001 -0.000000 -3.022000 -1.565770 5.608730 12.994200 -0.242716 4.980390 -86.423700 -8.059180 -65.973400 5.348090 -0.000007 -0.000001 -41.923400 -53.053100 -69.928200 24.328600 0.000019 0.000005 15.858100 1.424120 -85.003200 22.291600 -0.000001 0.000005 24.127200 5.253560 1.341430 12.994500 -0.242716 -4.980390 87.558900 10.395300 -76.707000 -5.348130 -0.000001 -0.000004 -57.263900 18.214300 -5.744580 -24.328900 0.000322 -0.000009 -0.390307 -0.883083 -23.788200 -22.291500 -0.000108 -0.000004 17.240100 5.403650 -3.056430 -2.192480 -6.469440 -0.000000 -177.949000 -18.354100 -2.863350 39.081100 -0.000007 -0.000012 -0.148172 0.289687 27.089400 40.985400 -0.000006 -0.000013 2.028500 3.636060 -70.881300 11.754300 -0.000000 0.000003 -0.000260 -0.002307 -16.663900 -2.192510 6.469440 -0.000001 173.089000 18.513700 176.197000 -39.081100 -0.002282 -0.040193 -0.150353 0.308195 26.500400 -40.985400 0.000008 0.000006 1.746610 19.056800 -68.905400 -11.754300 -0.000006 -0.000006 -0.024196 -0.028882 -16.555900
0.000000 0.000000 0.000000 0.000000 0.000000 -0.000000 3.448310 91.218300 1.407730 89.500600 -8.798480 3.617480 15.735700 0.000005 -0.000001 79.811000 85.041700 -76.877800 8.984550 -0.406207 -0.000000 2.050560 -1.899140 5.895280 16.377300 -0.000001 -0.000001 2.872740 -0.709480 -0.592626 6.456720 -0.000001 -0.000000 -2.824600 -1.674490 5.729760 12.994200 -0.242716 4.980390 -87.055300 -6.859740 -66.700600 5.348090 -0.000007 -0.000001 -38.127700 -46.800300 -61.181300 24.328600 0.000019 0.000005 15.193200 -0.755962 -92.782600 22.291600 -0.000001 0.000005 25.709400 5.284320 0.515377 12.994500 -0.242716 -4.980390 87.515300 10.504800 -76.612300 -5.348130 -0.000001 -0.000004 -57.609400 18.327200 -6.182740 -24.328900 0.000322 -0.000009 -0.438828 -1.045970 -22.714000 -22.291500 -0.000108 -0.000004 17.265100 5.402340 -3.013580 -2.192480 -6.469440 -0.000000 -177.804000 -18.034800 -2.850450 39.081100 -0.000007 -0.000012 -0.145878 0.283946 27.192000 40.985400 -0.000006 -0.000013 1.952080 3.896700 -70.821300 11.754300 -0.000000 0.000003 -0.000264 -0.002339 -16.665100 -2.192510 6.469440 -0.000001 173.093000 18.888300 176.410000 -39.081100 -0.002282 -0.040193 -0.160759 0.328238 26.558100 -40.985400 0.000008 0.000006 1.660710 18.919100 -68.938700 -11.754300 -0.000006 -0.000006 -0.061552 -0.073609 -16.527000
